<?xml version="1.0" encoding="UTF-8"?>
<svg xmlns="http://www.w3.org/2000/svg"
     xmlns:xlink="http://www.w3.org/1999/xlink"
     xmlns:gadfly="http://www.gadflyjl.org/ns"
     version="1.2"
     width="203.2mm" height="254mm" viewBox="0 0 203.2 254"
     stroke="none"
     fill="#000000"
     stroke-width="0.3"
     font-size="3.88"
>
<defs>
  <marker id="arrow" markerWidth="15" markerHeight="7" refX="5" refY="3.5" orient="auto" markerUnits="strokeWidth">
    <path d="M0,0 L15,3.5 L0,7 z" stroke="context-stroke" fill="context-stroke"/>
  </marker>
</defs>
<g class="plotroot xscalable yscalable" id="img-17f68b92-1">
  <g class="guide xlabels" font-size="2.82" font-family="'PT Sans Caption','Helvetica Neue','Helvetica',sans-serif" fill="#6C606B" id="img-17f68b92-2">
    <g transform="translate(19.94,245.33)">
      <g class="primitive">
        <text text-anchor="middle" dy="0.6em">0</text>
      </g>
    </g>
    <g transform="translate(78.69,245.33)">
      <g class="primitive">
        <text text-anchor="middle" dy="0.6em">50</text>
      </g>
    </g>
    <g transform="translate(137.45,245.33)">
      <g class="primitive">
        <text text-anchor="middle" dy="0.6em">100</text>
      </g>
    </g>
    <g transform="translate(196.2,245.33)">
      <g class="primitive">
        <text text-anchor="middle" dy="0.6em">150</text>
      </g>
    </g>
  </g>
  <g clip-path="url(#img-17f68b92-3)">
    <g id="img-17f68b92-4">
      <g pointer-events="visible" fill="#000000" fill-opacity="0.000" stroke="#000000" stroke-opacity="0.000" class="guide background" id="img-17f68b92-5">
        <g transform="translate(108.07,124.66)" id="img-17f68b92-6">
          <path d="M-90.13,-119.66 L 90.13 -119.66 90.13 119.66 -90.13 119.66 z" class="primitive"/>
        </g>
      </g>
      <g class="guide ygridlines xfixed" stroke-dasharray="0.5,0.5" stroke-width="0.2" stroke="#D0D0E0" id="img-17f68b92-7">
        <g transform="translate(108.07,242.33)" id="img-17f68b92-8">
          <path fill="none" d="M-90.13,0 L 90.13 0" class="primitive"/>
        </g>
        <g transform="translate(108.07,195.26)" id="img-17f68b92-9">
          <path fill="none" d="M-90.13,0 L 90.13 0" class="primitive"/>
        </g>
        <g transform="translate(108.07,148.2)" id="img-17f68b92-10">
          <path fill="none" d="M-90.13,0 L 90.13 0" class="primitive"/>
        </g>
        <g transform="translate(108.07,101.13)" id="img-17f68b92-11">
          <path fill="none" d="M-90.13,0 L 90.13 0" class="primitive"/>
        </g>
        <g transform="translate(108.07,54.07)" id="img-17f68b92-12">
          <path fill="none" d="M-90.13,0 L 90.13 0" class="primitive"/>
        </g>
        <g transform="translate(108.07,7)" id="img-17f68b92-13">
          <path fill="none" d="M-90.13,0 L 90.13 0" class="primitive"/>
        </g>
      </g>
      <g class="guide xgridlines yfixed" stroke-dasharray="0.5,0.5" stroke-width="0.2" stroke="#D0D0E0" id="img-17f68b92-14">
        <g transform="translate(19.94,124.66)" id="img-17f68b92-15">
          <path fill="none" d="M0,-119.66 L 0 119.66" class="primitive"/>
        </g>
        <g transform="translate(78.69,124.66)" id="img-17f68b92-16">
          <path fill="none" d="M0,-119.66 L 0 119.66" class="primitive"/>
        </g>
        <g transform="translate(137.45,124.66)" id="img-17f68b92-17">
          <path fill="none" d="M0,-119.66 L 0 119.66" class="primitive"/>
        </g>
        <g transform="translate(196.2,124.66)" id="img-17f68b92-18">
          <path fill="none" d="M0,-119.66 L 0 119.66" class="primitive"/>
        </g>
      </g>
      <g class="plotpanel" id="img-17f68b92-19">
        <metadata>
          <boundingbox value="17.939166666666665mm 5.0mm 180.26083333333332mm 239.32666666666665mm"/>
          <unitbox value="-1.7020230435008723 1.021247060823253 153.40404608700175 -2.542494121646506"/>
        </metadata>
        <g stroke-width="0.3" fill="#000000" fill-opacity="0.000" class="geometry" id="img-17f68b92-20">
          <g class="color_LCHab{Float32}(70.0f0,60.0f0,240.0f0)" stroke-dasharray="none" stroke="#00BFFF" id="img-17f68b92-21">
            <g transform="translate(80.46,122.76)" id="img-17f68b92-22">
              <path fill="none" d="M-59.34,-21.62 L -58.17 -20.36 -56.99 -25.88 -55.82 -28.68 -54.64 -29.29 -53.47 -28.26 -52.29 -23.42 -51.12 -38.24 -49.94 -31.76 -48.77 -24.57 -47.59 -28.32 -46.42 -35.96 -45.24 -32.7 -44.07 -30.93 -42.89 -15.8 -41.72 7.55 -40.54 -13.88 -39.36 -15.94 -38.19 -14.84 -37.01 -9.18 -35.84 -19.93 -34.66 -19.1 -33.49 -21.73 -32.31 -22.78 -31.14 -19.41 -29.96 -23.87 -28.79 -26.7 -27.61 -19.52 -26.44 -32.91 -25.26 -36.76 -24.09 -42.3 -22.91 -39.51 -21.74 -46.01 -20.56 -50.78 -19.39 -50.25 -18.21 -33.58 -17.04 -48.55 -15.86 -61.7 -14.69 -66.23 -13.51 -63.2 -12.34 -65.52 -11.16 -63.84 -9.99 -49.93 -8.81 -48.18 -7.64 -60.13 -6.46 -58.6 -5.29 -57.97 -4.11 -63.41 -2.94 -71.8 -1.76 -50.2 -0.59 -39.16 0.59 -30.87 1.76 -26.22 2.94 -31.04 4.11 -23.9 5.29 -16.67 6.46 -16.39 7.64 -3.97 8.81 0.57 9.99 11.47 11.16 13.49 12.34 26.4 13.51 40.88 14.69 52.43 15.86 70.87 17.04 75.32 18.21 62.72 19.39 55.11 20.56 65.01 21.74 57.32 22.91 55.89 24.09 59 25.26 45.4 26.44 49.57 27.61 39.24 28.79 41.61 29.96 38.86 31.14 71.49 32.31 76.47 33.49 75.36 34.66 55.56 35.84 41.23 37.01 61.07 38.19 55.83 39.36 61.19 40.54 65.68 41.72 64.03 42.89 78.32 44.07 74.16 45.24 58.38 46.42 56.13 47.59 34.35 48.77 35.12 49.94 22.53 51.12 11.05 52.29 22.55 53.47 20.13 54.64 12.61 55.82 19.03 56.99 17.56 58.17 16.24 59.34 17.43" class="primitive"/>
            </g>
          </g>
        </g>
      </g>
    </g>
  </g>
  <g class="guide ylabels" font-size="2.82" font-family="'PT Sans Caption','Helvetica Neue','Helvetica',sans-serif" fill="#6C606B" id="img-17f68b92-23">
    <g transform="translate(16.94,242.33)" id="img-17f68b92-24">
      <g class="primitive">
        <text text-anchor="end" dy="0.35em">-1.5</text>
      </g>
    </g>
    <g transform="translate(16.94,195.26)" id="img-17f68b92-25">
      <g class="primitive">
        <text text-anchor="end" dy="0.35em">-1.0</text>
      </g>
    </g>
    <g transform="translate(16.94,148.2)" id="img-17f68b92-26">
      <g class="primitive">
        <text text-anchor="end" dy="0.35em">-0.5</text>
      </g>
    </g>
    <g transform="translate(16.94,101.13)" id="img-17f68b92-27">
      <g class="primitive">
        <text text-anchor="end" dy="0.35em">0.0</text>
      </g>
    </g>
    <g transform="translate(16.94,54.07)" id="img-17f68b92-28">
      <g class="primitive">
        <text text-anchor="end" dy="0.35em">0.5</text>
      </g>
    </g>
    <g transform="translate(16.94,7)" id="img-17f68b92-29">
      <g class="primitive">
        <text text-anchor="end" dy="0.35em">1.0</text>
      </g>
    </g>
  </g>
  <g font-size="3.88" font-family="'PT Sans','Helvetica Neue','Helvetica',sans-serif" fill="#564A55" stroke="#000000" stroke-opacity="0.000" id="img-17f68b92-30">
    <g transform="translate(8.81,124.66)" id="img-17f68b92-31">
      <g class="primitive">
        <text text-anchor="end" dy="0.35em">y</text>
      </g>
    </g>
  </g>
</g>
<defs>
  <clipPath id="img-17f68b92-3">
    <path d="M17.94,5 L 198.2 5 198.2 244.33 17.94 244.33" />
  </clipPath>
</defs>
</svg>
