<?xml version="1.0" encoding="UTF-8"?>
<svg xmlns="http://www.w3.org/2000/svg"
     xmlns:xlink="http://www.w3.org/1999/xlink"
     xmlns:gadfly="http://www.gadflyjl.org/ns"
     version="1.2"
     width="282.84mm" height="200mm" viewBox="0 0 141.42 100"
     stroke="none"
     fill="#000000"
     stroke-width="0.3"
     font-size="3.88"
>
<defs>
  <marker id="arrow" markerWidth="15" markerHeight="7" refX="5" refY="3.5" orient="auto" markerUnits="strokeWidth">
    <path d="M0,0 L15,3.5 L0,7 z" stroke="context-stroke" fill="context-stroke"/>
  </marker>
</defs>
<g stroke="#000000" stroke-opacity="0.000" fill="#222831" id="img-96b06750-1">
  <g transform="translate(70.71,50)">
    <path d="M-70.71,-50 L 70.71 -50 70.71 50 -70.71 50 z" class="primitive"/>
  </g>
</g>
<g class="plotroot xscalable yscalable" id="img-96b06750-2">
  <g font-size="3.88" font-family="'PT Sans','Helvetica Neue','Helvetica',sans-serif" fill="#A1A1A1" stroke="#000000" stroke-opacity="0.000" id="img-96b06750-3">
    <g transform="translate(68.69,88.39)">
      <g class="primitive">
        <text text-anchor="middle" dy="0.6em">time</text>
      </g>
    </g>
  </g>
  <g class="guide xlabels" font-size="2.82" font-family="'PT Sans Caption','Helvetica Neue','Helvetica',sans-serif" fill="#A1A1A1" id="img-96b06750-4">
    <g transform="translate(19.27,81.72)">
      <g class="primitive">
        <text text-anchor="middle" dy="0.6em">0</text>
      </g>
    </g>
    <g transform="translate(52.21,81.72)">
      <g class="primitive">
        <text text-anchor="middle" dy="0.6em">50</text>
      </g>
    </g>
    <g transform="translate(85.16,81.72)">
      <g class="primitive">
        <text text-anchor="middle" dy="0.6em">100</text>
      </g>
    </g>
    <g transform="translate(118.1,81.72)">
      <g class="primitive">
        <text text-anchor="middle" dy="0.6em">150</text>
      </g>
    </g>
  </g>
  <g class="guide colorkey" id="img-96b06750-5">
    <g fill="#A1A1A1" font-size="2.82" font-family="'PT Sans','Helvetica Neue','Helvetica',sans-serif" id="img-96b06750-6">
      <g transform="translate(123.92,42.86)" id="img-96b06750-7" class="color_a">
        <g class="primitive">
          <text dy="0.35em">a</text>
        </g>
      </g>
      <g transform="translate(123.92,46.48)" id="img-96b06750-8" class="color_b">
        <g class="primitive">
          <text dy="0.35em">b</text>
        </g>
      </g>
    </g>
    <g fill-opacity="1" id="img-96b06750-9">
      <g transform="translate(122.01,42.86)" id="img-96b06750-10" fill="#FE4365" stroke="#B58486" class="color_a">
        <path d="M-0.91,-0.91 L 0.91 -0.91 0.91 0.91 -0.91 0.91 z" class="primitive"/>
      </g>
      <g transform="translate(122.01,46.48)" id="img-96b06750-11" fill="#ECA25C" stroke="#AA8B71" class="color_b">
        <path d="M-0.91,-0.91 L 0.91 -0.91 0.91 0.91 -0.91 0.91 z" class="primitive"/>
      </g>
    </g>
    <g fill="#A1A1A1" font-size="3.88" font-family="'PT Sans','Helvetica Neue','Helvetica',sans-serif" stroke="#000000" stroke-opacity="0.000" id="img-96b06750-12">
      <g transform="translate(121.1,39.04)" id="img-96b06750-13">
        <g class="primitive">
          <text dy="-0em">hostname</text>
        </g>
      </g>
    </g>
  </g>
  <g clip-path="url(#img-96b06750-14)">
    <g id="img-96b06750-15">
      <g pointer-events="visible" fill="#222831" stroke="#000000" stroke-opacity="0.000" class="guide background" id="img-96b06750-16">
        <g transform="translate(68.69,42.86)" id="img-96b06750-17">
          <path d="M-51.42,-37.86 L 51.42 -37.86 51.42 37.86 -51.42 37.86 z" class="primitive"/>
        </g>
      </g>
      <g class="guide ygridlines xfixed" stroke-dasharray="0.5,0.5" stroke-width="0.2" stroke="#575757" id="img-96b06750-18">
        <g transform="translate(68.69,78.72)" id="img-96b06750-19">
          <path fill="none" d="M-51.42,0 L 51.42 0" class="primitive"/>
        </g>
        <g transform="translate(68.69,60.79)" id="img-96b06750-20">
          <path fill="none" d="M-51.42,0 L 51.42 0" class="primitive"/>
        </g>
        <g transform="translate(68.69,42.86)" id="img-96b06750-21">
          <path fill="none" d="M-51.42,0 L 51.42 0" class="primitive"/>
        </g>
        <g transform="translate(68.69,24.93)" id="img-96b06750-22">
          <path fill="none" d="M-51.42,0 L 51.42 0" class="primitive"/>
        </g>
        <g transform="translate(68.69,7)" id="img-96b06750-23">
          <path fill="none" d="M-51.42,0 L 51.42 0" class="primitive"/>
        </g>
      </g>
      <g class="guide xgridlines yfixed" stroke-dasharray="0.5,0.5" stroke-width="0.2" stroke="#575757" id="img-96b06750-24">
        <g transform="translate(19.27,42.86)" id="img-96b06750-25">
          <path fill="none" d="M0,-37.86 L 0 37.86" class="primitive"/>
        </g>
        <g transform="translate(52.21,42.86)" id="img-96b06750-26">
          <path fill="none" d="M0,-37.86 L 0 37.86" class="primitive"/>
        </g>
        <g transform="translate(85.16,42.86)" id="img-96b06750-27">
          <path fill="none" d="M0,-37.86 L 0 37.86" class="primitive"/>
        </g>
        <g transform="translate(118.1,42.86)" id="img-96b06750-28">
          <path fill="none" d="M0,-37.86 L 0 37.86" class="primitive"/>
        </g>
      </g>
      <g class="plotpanel" id="img-96b06750-29">
        <metadata>
          <boundingbox value="17.265833333333333mm 5.0mm 102.83885623730951mm 75.715mm"/>
          <unitbox value="-3.035243541059478 11.115526737781495 156.07048708211897 -42.231053475562994"/>
        </metadata>
        <g stroke-width="0.3" fill="#000000" fill-opacity="0.000" class="geometry" id="img-96b06750-30">
          <g transform="translate(53.2,39.24)" id="img-96b06750-31" class="color_a" stroke-dasharray="none" stroke="#FE4365">
            <path fill="none" d="M-33.28,-14.31 L -32.62 -15.77 -31.96 -15.4 -31.3 -19.08 -30.64 -16.62 -29.98 -17.35 -29.32 -16.18 -28.66 -18.01 -28 -18.8 -27.35 -18.35 -26.69 -17.93 -26.03 -17 -25.37 -17.49 -24.71 -17.23 -24.05 -16.62 -23.39 -17.17 -22.73 -16.58 -22.07 -14.59 -21.42 -16.51 -20.76 -13.41 -20.1 -13.49 -19.44 -14.03 -18.78 -18.58 -18.12 -17.15 -17.46 -19.66 -16.8 -20.95 -16.14 -20.42 -15.48 -19.56 -14.83 -20.55 -14.17 -21.4 -13.51 -19.39 -12.85 -17.56 -12.19 -16.86 -11.53 -13.68 -10.87 -11.78 -10.21 -10.78 -9.55 -11.18 -8.9 -10.6 -8.24 -11 -7.58 -12.67 -6.92 -11.09 -6.26 -12.22 -5.6 -12.81 -4.94 -9.74 -4.28 -8.65 -3.62 -7.45 -2.97 -5.71 -2.31 -1.81 -1.65 0.52 -0.99 1.86 -0.33 3.77 0.33 7.39 0.99 5.51 1.65 4.09 2.31 5.11 2.97 5.91 3.62 9.74 4.28 8.28 4.94 8.97 5.6 7.56 6.26 8.48 6.92 7.59 7.58 9.83 8.24 8.76 8.9 9.28 9.55 9.69 10.21 10.33 10.87 10.7 11.53 10.61 12.19 7.58 12.85 9.99 13.51 8.92 14.17 9.31 14.83 11.77 15.48 14.59 16.14 14.27 16.8 11.46 17.46 11.84 18.12 11.97 18.78 12.04 19.44 14.17 20.1 15.53 20.76 14.74 21.42 19.26 22.07 21.23 22.73 22.17 23.39 20.48 24.05 22.55 24.71 22.75 25.37 20.66 26.03 19.73 26.69 16.99 27.35 16.23 28 18.17 28.66 19.15 29.32 21.95 29.98 24.3 30.64 22.47 31.3 23.82 31.96 22.9 32.62 23.7 33.28 24.49" class="primitive"/>
          </g>
          <g transform="translate(53.2,32.53)" id="img-96b06750-32" class="color_b" stroke-dasharray="none" stroke="#ECA25C">
            <path fill="none" d="M-33.28,-7.61 L -32.62 -7.75 -31.96 -5.68 -31.3 -5.25 -30.64 -4.22 -29.98 -3.84 -29.32 -4.77 -28.66 -5.97 -28 -5.61 -27.35 -7.05 -26.69 -7.15 -26.03 -9.39 -25.37 -8.68 -24.71 -8.22 -24.05 -3.16 -23.39 -5.2 -22.73 -7.31 -22.07 -6.91 -21.42 -4.78 -20.76 -4.44 -20.1 -5.88 -19.44 -9.31 -18.78 -12.96 -18.12 -13.35 -17.46 -12.04 -16.8 -9.73 -16.14 -9.59 -15.48 -11.12 -14.83 -7.5 -14.17 -8.87 -13.51 -7.28 -12.85 -7.4 -12.19 -9.9 -11.53 -10.55 -10.87 -9.87 -10.21 -10.85 -9.55 -11.15 -8.9 -11.59 -8.24 -12.33 -7.58 -9.95 -6.92 -7.98 -6.26 -5.67 -5.6 -3.92 -4.94 -4.03 -4.28 -4.27 -3.62 -2.92 -2.97 -1.66 -2.31 -1.32 -1.65 -1.17 -0.99 -0.16 -0.33 2.87 0.33 3.76 0.99 3.49 1.65 3.47 2.31 6.56 2.97 5.86 3.62 6.56 4.28 7.41 4.94 7.77 5.6 9.66 6.26 8.49 6.92 12.66 7.58 10.7 8.24 8.11 8.9 7.93 9.55 8.92 10.21 6.59 10.87 7.41 11.53 10.94 12.19 10.5 12.85 12.39 13.51 11.12 14.17 7.23 14.83 7.72 15.48 9.11 16.14 8.52 16.8 9.95 17.46 8.72 18.12 8.02 18.78 7.22 19.44 6.62 20.1 7.38 20.76 8.95 21.42 9.36 22.07 7.11 22.73 8.64 23.39 8.1 24.05 7.6 24.71 5.76 25.37 4.9 26.03 4.78 26.69 5.61 27.35 5.97 28 5.24 28.66 2.93 29.32 3.34 29.98 3.09 30.64 3.78 31.3 4.91 31.96 2.91 32.62 1.09 33.28 -0.4" class="primitive"/>
          </g>
        </g>
      </g>
    </g>
  </g>
  <g class="guide ylabels" font-size="2.82" font-family="'PT Sans Caption','Helvetica Neue','Helvetica',sans-serif" fill="#A1A1A1" id="img-96b06750-33">
    <g transform="translate(16.27,78.72)" id="img-96b06750-34">
      <g class="primitive">
        <text text-anchor="end" dy="0.35em">-30</text>
      </g>
    </g>
    <g transform="translate(16.27,60.79)" id="img-96b06750-35">
      <g class="primitive">
        <text text-anchor="end" dy="0.35em">-20</text>
      </g>
    </g>
    <g transform="translate(16.27,42.86)" id="img-96b06750-36">
      <g class="primitive">
        <text text-anchor="end" dy="0.35em">-10</text>
      </g>
    </g>
    <g transform="translate(16.27,24.93)" id="img-96b06750-37">
      <g class="primitive">
        <text text-anchor="end" dy="0.35em">0</text>
      </g>
    </g>
    <g transform="translate(16.27,7)" id="img-96b06750-38">
      <g class="primitive">
        <text text-anchor="end" dy="0.35em">10</text>
      </g>
    </g>
  </g>
  <g font-size="3.88" font-family="'PT Sans','Helvetica Neue','Helvetica',sans-serif" fill="#A1A1A1" stroke="#000000" stroke-opacity="0.000" id="img-96b06750-39">
    <g transform="translate(8.81,42.86)" id="img-96b06750-40">
      <g class="primitive">
        <text text-anchor="end" dy="0.35em">y</text>
      </g>
    </g>
  </g>
</g>
<defs>
  <clipPath id="img-96b06750-14">
    <path d="M17.27,5 L 120.1 5 120.1 80.72 17.27 80.72" />
  </clipPath>
</defs>
</svg>
