<?xml version="1.0" encoding="utf-8"?>
<svg xmlns="http://www.w3.org/2000/svg" xmlns:xlink="http://www.w3.org/1999/xlink" width="600" height="400" viewBox="0 0 2400 1600">
<defs>
  <clipPath id="clip4800">
    <rect x="0" y="0" width="2400" height="1600"/>
  </clipPath>
</defs>
<polygon clip-path="url(#clip4800)" points="
0,1600 2400,1600 2400,0 0,0 
  " fill="#ffffff" fill-rule="evenodd" fill-opacity="1"/>
<defs>
  <clipPath id="clip4801">
    <rect x="480" y="0" width="1681" height="1600"/>
  </clipPath>
</defs>
<polygon clip-path="url(#clip4800)" points="
182.008,1487.47 2352.76,1487.47 2352.76,47.2441 182.008,47.2441 
  " fill="#ffffff" fill-rule="evenodd" fill-opacity="1"/>
<defs>
  <clipPath id="clip4802">
    <rect x="182" y="47" width="2172" height="1441"/>
  </clipPath>
</defs>
<polyline clip-path="url(#clip4802)" style="stroke:#000000; stroke-width:2; stroke-opacity:0.1; fill:none" points="
  243.444,1487.47 243.444,47.2441 
  "/>
<polyline clip-path="url(#clip4802)" style="stroke:#000000; stroke-width:2; stroke-opacity:0.1; fill:none" points="
  584.757,1487.47 584.757,47.2441 
  "/>
<polyline clip-path="url(#clip4802)" style="stroke:#000000; stroke-width:2; stroke-opacity:0.1; fill:none" points="
  926.069,1487.47 926.069,47.2441 
  "/>
<polyline clip-path="url(#clip4802)" style="stroke:#000000; stroke-width:2; stroke-opacity:0.1; fill:none" points="
  1267.38,1487.47 1267.38,47.2441 
  "/>
<polyline clip-path="url(#clip4802)" style="stroke:#000000; stroke-width:2; stroke-opacity:0.1; fill:none" points="
  1608.69,1487.47 1608.69,47.2441 
  "/>
<polyline clip-path="url(#clip4802)" style="stroke:#000000; stroke-width:2; stroke-opacity:0.1; fill:none" points="
  1950.01,1487.47 1950.01,47.2441 
  "/>
<polyline clip-path="url(#clip4802)" style="stroke:#000000; stroke-width:2; stroke-opacity:0.1; fill:none" points="
  2291.32,1487.47 2291.32,47.2441 
  "/>
<polyline clip-path="url(#clip4802)" style="stroke:#000000; stroke-width:2; stroke-opacity:0.1; fill:none" points="
  182.008,1446.93 2352.76,1446.93 
  "/>
<polyline clip-path="url(#clip4802)" style="stroke:#000000; stroke-width:2; stroke-opacity:0.1; fill:none" points="
  182.008,1107.15 2352.76,1107.15 
  "/>
<polyline clip-path="url(#clip4802)" style="stroke:#000000; stroke-width:2; stroke-opacity:0.1; fill:none" points="
  182.008,767.359 2352.76,767.359 
  "/>
<polyline clip-path="url(#clip4802)" style="stroke:#000000; stroke-width:2; stroke-opacity:0.1; fill:none" points="
  182.008,427.573 2352.76,427.573 
  "/>
<polyline clip-path="url(#clip4802)" style="stroke:#000000; stroke-width:2; stroke-opacity:0.1; fill:none" points="
  182.008,87.7871 2352.76,87.7871 
  "/>
<polyline clip-path="url(#clip4800)" style="stroke:#000000; stroke-width:4; stroke-opacity:1; fill:none" points="
  182.008,1487.47 2352.76,1487.47 
  "/>
<polyline clip-path="url(#clip4800)" style="stroke:#000000; stroke-width:4; stroke-opacity:1; fill:none" points="
  182.008,1487.47 182.008,47.2441 
  "/>
<polyline clip-path="url(#clip4800)" style="stroke:#000000; stroke-width:4; stroke-opacity:1; fill:none" points="
  243.444,1487.47 243.444,1465.87 
  "/>
<polyline clip-path="url(#clip4800)" style="stroke:#000000; stroke-width:4; stroke-opacity:1; fill:none" points="
  584.757,1487.47 584.757,1465.87 
  "/>
<polyline clip-path="url(#clip4800)" style="stroke:#000000; stroke-width:4; stroke-opacity:1; fill:none" points="
  926.069,1487.47 926.069,1465.87 
  "/>
<polyline clip-path="url(#clip4800)" style="stroke:#000000; stroke-width:4; stroke-opacity:1; fill:none" points="
  1267.38,1487.47 1267.38,1465.87 
  "/>
<polyline clip-path="url(#clip4800)" style="stroke:#000000; stroke-width:4; stroke-opacity:1; fill:none" points="
  1608.69,1487.47 1608.69,1465.87 
  "/>
<polyline clip-path="url(#clip4800)" style="stroke:#000000; stroke-width:4; stroke-opacity:1; fill:none" points="
  1950.01,1487.47 1950.01,1465.87 
  "/>
<polyline clip-path="url(#clip4800)" style="stroke:#000000; stroke-width:4; stroke-opacity:1; fill:none" points="
  2291.32,1487.47 2291.32,1465.87 
  "/>
<polyline clip-path="url(#clip4800)" style="stroke:#000000; stroke-width:4; stroke-opacity:1; fill:none" points="
  182.008,1446.93 214.569,1446.93 
  "/>
<polyline clip-path="url(#clip4800)" style="stroke:#000000; stroke-width:4; stroke-opacity:1; fill:none" points="
  182.008,1107.15 214.569,1107.15 
  "/>
<polyline clip-path="url(#clip4800)" style="stroke:#000000; stroke-width:4; stroke-opacity:1; fill:none" points="
  182.008,767.359 214.569,767.359 
  "/>
<polyline clip-path="url(#clip4800)" style="stroke:#000000; stroke-width:4; stroke-opacity:1; fill:none" points="
  182.008,427.573 214.569,427.573 
  "/>
<polyline clip-path="url(#clip4800)" style="stroke:#000000; stroke-width:4; stroke-opacity:1; fill:none" points="
  182.008,87.7871 214.569,87.7871 
  "/>
<g clip-path="url(#clip4800)">
<text style="fill:#000000; fill-opacity:1; font-family:Arial,Helvetica Neue,Helvetica,sans-serif; font-size:48px; text-anchor:middle;" transform="rotate(0, 243.444, 1541.47)" x="243.444" y="1541.47">-3</text>
</g>
<g clip-path="url(#clip4800)">
<text style="fill:#000000; fill-opacity:1; font-family:Arial,Helvetica Neue,Helvetica,sans-serif; font-size:48px; text-anchor:middle;" transform="rotate(0, 584.757, 1541.47)" x="584.757" y="1541.47">-2</text>
</g>
<g clip-path="url(#clip4800)">
<text style="fill:#000000; fill-opacity:1; font-family:Arial,Helvetica Neue,Helvetica,sans-serif; font-size:48px; text-anchor:middle;" transform="rotate(0, 926.069, 1541.47)" x="926.069" y="1541.47">-1</text>
</g>
<g clip-path="url(#clip4800)">
<text style="fill:#000000; fill-opacity:1; font-family:Arial,Helvetica Neue,Helvetica,sans-serif; font-size:48px; text-anchor:middle;" transform="rotate(0, 1267.38, 1541.47)" x="1267.38" y="1541.47">0</text>
</g>
<g clip-path="url(#clip4800)">
<text style="fill:#000000; fill-opacity:1; font-family:Arial,Helvetica Neue,Helvetica,sans-serif; font-size:48px; text-anchor:middle;" transform="rotate(0, 1608.69, 1541.47)" x="1608.69" y="1541.47">1</text>
</g>
<g clip-path="url(#clip4800)">
<text style="fill:#000000; fill-opacity:1; font-family:Arial,Helvetica Neue,Helvetica,sans-serif; font-size:48px; text-anchor:middle;" transform="rotate(0, 1950.01, 1541.47)" x="1950.01" y="1541.47">2</text>
</g>
<g clip-path="url(#clip4800)">
<text style="fill:#000000; fill-opacity:1; font-family:Arial,Helvetica Neue,Helvetica,sans-serif; font-size:48px; text-anchor:middle;" transform="rotate(0, 2291.32, 1541.47)" x="2291.32" y="1541.47">3</text>
</g>
<g clip-path="url(#clip4800)">
<text style="fill:#000000; fill-opacity:1; font-family:Arial,Helvetica Neue,Helvetica,sans-serif; font-size:48px; text-anchor:end;" transform="rotate(0, 158.008, 1464.43)" x="158.008" y="1464.43">-1.0</text>
</g>
<g clip-path="url(#clip4800)">
<text style="fill:#000000; fill-opacity:1; font-family:Arial,Helvetica Neue,Helvetica,sans-serif; font-size:48px; text-anchor:end;" transform="rotate(0, 158.008, 1124.65)" x="158.008" y="1124.65">-0.5</text>
</g>
<g clip-path="url(#clip4800)">
<text style="fill:#000000; fill-opacity:1; font-family:Arial,Helvetica Neue,Helvetica,sans-serif; font-size:48px; text-anchor:end;" transform="rotate(0, 158.008, 784.859)" x="158.008" y="784.859">0.0</text>
</g>
<g clip-path="url(#clip4800)">
<text style="fill:#000000; fill-opacity:1; font-family:Arial,Helvetica Neue,Helvetica,sans-serif; font-size:48px; text-anchor:end;" transform="rotate(0, 158.008, 445.073)" x="158.008" y="445.073">0.5</text>
</g>
<g clip-path="url(#clip4800)">
<text style="fill:#000000; fill-opacity:1; font-family:Arial,Helvetica Neue,Helvetica,sans-serif; font-size:48px; text-anchor:end;" transform="rotate(0, 158.008, 105.287)" x="158.008" y="105.287">1.0</text>
</g>
<polyline clip-path="url(#clip4802)" style="stroke:#009af9; stroke-width:4; stroke-opacity:1; fill:none" points="
  243.444,863.261 264.13,903.834 284.816,943.906 305.501,983.329 326.187,1021.96 346.872,1059.66 367.558,1096.28 388.244,1131.69 408.929,1165.77 429.615,1198.38 
  450.3,1229.41 470.986,1258.75 491.672,1286.28 512.357,1311.9 533.043,1335.53 553.728,1357.07 574.414,1376.44 595.1,1393.58 615.785,1408.41 636.471,1420.9 
  657.157,1430.98 677.842,1438.63 698.528,1443.81 719.213,1446.51 739.899,1446.71 760.585,1444.42 781.27,1439.65 801.956,1432.4 822.641,1422.71 843.327,1410.62 
  864.013,1396.17 884.698,1379.4 905.384,1360.39 926.069,1339.2 946.755,1315.91 967.441,1290.61 988.126,1263.38 1008.81,1234.34 1029.5,1203.57 1050.18,1171.21 
  1070.87,1137.37 1091.55,1102.16 1112.24,1065.73 1132.93,1028.2 1153.61,989.712 1174.3,950.408 1194.98,910.433 1215.67,869.931 1236.35,829.054 1257.04,787.949 
  1277.72,746.769 1298.41,705.665 1319.1,664.787 1339.78,624.286 1360.47,584.311 1381.15,545.007 1401.84,506.52 1422.52,468.991 1443.21,432.557 1463.9,397.352 
  1484.58,363.507 1505.27,331.144 1525.95,300.383 1546.64,271.337 1567.32,244.112 1588.01,218.808 1608.69,195.519 1629.38,174.33 1650.07,155.318 1670.75,138.553 
  1691.44,124.098 1712.12,112.004 1732.81,102.317 1753.49,95.072 1774.18,90.2956 1794.87,88.0053 1815.55,88.2096 1836.24,90.9078 1856.92,96.0898 1877.61,103.737 
  1898.29,113.82 1918.98,126.304 1939.66,141.141 1960.35,158.278 1981.04,177.652 2001.72,199.19 2022.41,222.816 2043.09,248.44 2063.78,275.97 2084.46,305.305 
  2105.15,336.336 2125.83,368.95 2146.52,403.026 2167.21,438.441 2187.89,475.063 2208.58,512.759 2229.26,551.39 2249.95,590.813 2270.63,630.885 2291.32,671.458 
  
  "/>
<polygon clip-path="url(#clip4802)" points="
1608.69,767.359 1608.69,195.519 1608.69,767.359 
  " fill="#e26f46" fill-rule="evenodd" fill-opacity="1"/>
<polyline clip-path="url(#clip4802)" style="stroke:#000000; stroke-width:4; stroke-opacity:1; fill:none" stroke-dasharray="16, 10" points="
  1608.69,767.359 1608.69,195.519 1608.69,767.359 
  "/>
<polygon clip-path="url(#clip4802)" points="
1608.69,195.519 1077.13,767.359 1608.69,195.519 
  " fill="#3da44d" fill-rule="evenodd" fill-opacity="1"/>
<polyline clip-path="url(#clip4802)" style="stroke:#000000; stroke-width:4; stroke-opacity:1; fill:none" points="
  1608.69,195.519 1077.13,767.359 1608.69,195.519 
  "/>
</svg>
